<svg width="30" height="31" viewBox="0 0 30 31" fill="none" xmlns="http://www.w3.org/2000/svg">
<path fill-rule="evenodd" clip-rule="evenodd" d="M0 15.1456C0 6.9322 6.6822 0.25 14.8956 0.25C23.1096 0.25 29.7912 6.9322 29.7912 15.1456C29.7912 23.3584 23.1084 30.0412 14.8956 30.0412C6.6822 30.0412 0 23.3584 0 15.1456ZM21.5508 12.1816C21.5508 12.0328 21.5472 11.884 21.5406 11.7364C22.2108 11.2546 22.7922 10.6504 23.2494 9.964C22.6368 10.237 21.9744 10.4206 21.2802 10.5034C21.99 10.0786 22.5318 9.4072 22.7898 8.6062C22.1256 9.0004 21.3936 9.2848 20.6118 9.4384C19.9854 8.7724 19.0956 8.356 18.1092 8.356C16.2162 8.356 14.6814 9.8914 14.6814 11.7844C14.6814 12.0538 14.7108 12.3148 14.7696 12.5662C11.9208 12.4222 9.3936 11.0578 7.7034 8.983C7.4082 9.4894 7.2396 10.0786 7.2396 10.7074C7.2396 11.8966 7.845 12.9466 8.7642 13.5604C8.2026 13.543 7.674 13.3882 7.212 13.132C7.2114 13.1458 7.2114 13.1608 7.2114 13.1752C7.2114 14.8372 8.3928 16.2226 9.9612 16.537C9.6738 16.6156 9.3702 16.6564 9.0576 16.6564C8.8374 16.6564 8.622 16.6342 8.4132 16.5946C8.8494 17.9572 10.116 18.9484 11.616 18.976C10.4424 19.8952 8.9646 20.4436 7.3578 20.4436C7.0812 20.4436 6.8082 20.4274 6.54 20.3956C8.0568 21.3688 9.8592 21.9346 11.7954 21.9346C18.1032 21.9346 21.5508 16.7122 21.5508 12.1816Z" fill="white"/>
</svg>
