<svg width="30" height="31" viewBox="0 0 30 31" fill="none" xmlns="http://www.w3.org/2000/svg">
<path fill-rule="evenodd" clip-rule="evenodd" d="M29.7865 15.4084C29.7865 23.6337 23.1186 30.3017 14.8933 30.3017C6.66795 30.3017 0 23.6337 0 15.4084C0 7.18308 6.66795 0.515137 14.8933 0.515137C23.1186 0.515137 29.7865 7.18308 29.7865 15.4084ZM7.18619 8.7285C7.18619 7.67823 7.98292 6.87885 9.20071 6.87885C10.4188 6.87885 11.1672 7.67823 11.1908 8.7285C11.1908 9.75646 10.4188 10.5789 9.17708 10.5789H9.15398C7.95982 10.5789 7.18619 9.75646 7.18619 8.7285ZM23.7919 22.747V16.6068C23.7919 13.3188 22.0359 11.7885 19.6938 11.7885C17.8022 11.7885 16.9585 12.8292 16.4854 13.5572V12.0399H12.925C12.9727 13.0443 12.925 22.7467 12.925 22.7467H16.4851V16.7669C16.4851 16.4459 16.5093 16.1281 16.603 15.8993C16.8611 15.2589 17.4454 14.5976 18.429 14.5976C19.718 14.5976 20.2319 15.5799 20.2319 17.0183V22.747H23.7919ZM16.4854 13.5572V13.5922H16.4618C16.4652 13.5862 16.4696 13.58 16.4741 13.5738C16.478 13.5683 16.482 13.5628 16.4854 13.5572ZM7.39779 22.747H10.9566V12.0399H7.39779V22.747Z" fill="white"/>
</svg>
