<svg xmlns="http://www.w3.org/2000/svg" xmlns:xlink="http://www.w3.org/1999/xlink" width="73" height="73" viewBox="0 0 73 73">
    <defs>
        <path id="a" d="M0 .118h71.967v31.708H0z"/>
        <path id="c" d="M.07.03h14.786v17.48H.07z"/>
    </defs>
    <g fill="none" fill-rule="evenodd">
        <g transform="translate(.5 41)">
            <mask id="b" fill="#fff">
                <use xlink:href="#a"/>
            </mask>
            <path fill="#5A0C8C" d="M48.869 19.184a14.394 14.394 0 0 1-8.802 1.218L27.56 18.108a5.594 5.594 0 0 0-4.109.574l-5.753 3.623L13.6 8.915a9.092 9.092 0 0 0 3.416-1.903l2.047-1.817a12.935 12.935 0 0 1 13.39-1.283l.86.415a10.952 10.952 0 0 0 4.724 1.078h8.342a5.27 5.27 0 0 1 5.174 4.268L45.506 9.4c-2.198-.098-4.4.003-6.58.303a.932.932 0 0 0 .257 1.846 34.397 34.397 0 0 1 6.238-.287l7.116.32.042.001a.933.933 0 0 0 .935-.931c0-.15-.006-.3-.015-.449l.975-.512 10.31-5.539a4.097 4.097 0 0 1 4.915.785l-20.83 14.247zM5.111 29.963L1.99 4.477h8.296l7.8 25.486H5.11zM49.895 2.629l.023-.013a4.772 4.772 0 0 1 4.837.046l-4.182 2.242a7.118 7.118 0 0 0-2.67-1.197l1.992-1.078zm8.433.23c1.14-.568 2.576-.102 3.492.77l-8.224 4.419-.483.254a7.096 7.096 0 0 0-1.126-2.039l6.341-3.404zm5.567-.346l-.37.2c-1.493-1.806-4.08-2.506-6.051-1.51l-.021.01-.873.468a6.648 6.648 0 0 0-7.59-.683l-4.699 2.546h-6.253a9.065 9.065 0 0 1-3.91-.892l-.86-.415a14.804 14.804 0 0 0-15.36 1.495.77.77 0 0 0-.059.048l-2.077 1.842a7.212 7.212 0 0 1-2.718 1.51l-1.18-3.858a.934.934 0 0 0-.894-.66H.935A.933.933 0 0 0 .007 3.66l3.348 27.348a.934.934 0 0 0 .928.819H19.35a.933.933 0 0 0 .895-1.204l-1.98-6.47 6.165-3.88a3.721 3.721 0 0 1 2.706-.35c.02.006.039.01.058.013l12.54 2.3c3.407.608 6.92.114 10.026-1.41a.921.921 0 0 0 .114-.067L71.561 5.924a.93.93 0 0 0 .272-1.248 5.966 5.966 0 0 0-7.938-2.163z" mask="url(#b)"/>
        </g>
        <path fill="#5A0C8C" d="M11.5 65.906a1.094 1.094 0 1 1 0 2.187 1.094 1.094 0 0 1 0-2.187zM8.5 67a3 3 0 1 0 6 0 3 3 0 0 0-6 0z"/>
        <g transform="translate(29.5)">
            <mask id="d" fill="#fff">
                <use xlink:href="#c"/>
            </mask>
            <path fill="#5A0C8C" d="M2.377 10.3V7.314c.016-2.796 2.353-5.05 5.22-5.035 2.846.016 5.15 2.26 5.165 5.035V10.3c-.016 2.796-2.353 5.05-5.22 5.035-2.846-.015-5.15-2.26-5.165-5.035m12.48.036v-3.13C14.836 3.225 11.511.012 7.427.03 3.372.05.088 3.25.07 7.205v3.13c.02 3.981 3.345 7.193 7.428 7.175 4.057-.019 7.34-3.22 7.36-7.175" mask="url(#d)"/>
        </g>
        <path fill="#5A0C8C" d="M9.371 32v-5.183c.016-2.632 1.971-4.84 4.561-5.152a6.126 6.126 0 0 0 9.229.024 5.074 5.074 0 0 1 1.826.65 7.97 7.97 0 0 0-.856 3.605V32H9.371zm22.03-12.083a6.866 6.866 0 0 0 10.437.025c2.97.415 5.183 2.976 5.185 6.002v9.168H26.002v-9.168c.02-3.103 2.343-5.696 5.4-6.027zm18.622 1.748a6.126 6.126 0 0 0 9.23.024c2.514.383 4.374 2.562 4.376 5.128V32H48.894v-6.057a7.958 7.958 0 0 0-.865-3.615 5.027 5.027 0 0 1 1.994-.664zM25.067 37h22.891a.94.94 0 0 0 .936-.944v-2.167h15.67a.94.94 0 0 0 .936-.944v-6.128c-.002-3.732-2.875-6.82-6.565-7.059-.5-.037-.756.282-.964.538a4.266 4.266 0 0 1-6.04.609 4.311 4.311 0 0 1-.733-.776.933.933 0 0 0-.776-.383 6.888 6.888 0 0 0-3.44 1.014 7.84 7.84 0 0 0-5.489-2.748c-.483-.02-.728.277-.964.567a5.006 5.006 0 0 1-7.089.715 5.07 5.07 0 0 1-.86-.911.93.93 0 0 0-.775-.383 7.796 7.796 0 0 0-5.773 2.769 6.91 6.91 0 0 0-3.19-1.01c-.496-.038-.755.281-.962.537a4.266 4.266 0 0 1-6.774-.167.934.934 0 0 0-.775-.383c-3.8.098-6.83 3.234-6.831 7.07v6.129a.94.94 0 0 0 .935.944h15.696v2.167a.94.94 0 0 0 .936.944zM50.682 12.35v-2.277c0-2.08 1.635-3.765 3.652-3.765 2.018 0 3.654 1.684 3.655 3.764v2.278c0 2.08-1.635 3.765-3.653 3.765s-3.654-1.684-3.654-3.763v-.002zm9.818.467v-2.634C60.5 6.768 57.814 4 54.5 4s-6 2.768-6 6.183v2.634c0 3.415 2.686 6.183 6 6.183s6-2.768 6-6.183zM14.682 12.35v-2.277c0-2.08 1.635-3.765 3.654-3.765 2.018 0 3.655 1.684 3.655 3.764v2.278c0 2.08-1.636 3.765-3.654 3.765s-3.655-1.684-3.655-3.763v-.002zm9.818.467v-2.634C24.5 6.768 21.814 4 18.5 4s-6 2.768-6 6.183v2.634c0 3.415 2.686 6.183 6 6.183s6-2.768 6-6.183z"/>
    </g>
</svg>
