<svg xmlns="http://www.w3.org/2000/svg" width="73" height="66" viewBox="0 0 73 66">
    <g fill="#5A0C8C" fill-rule="evenodd">
        <path d="M4.23 8.46a1.41 1.41 0 1 0-.001-2.822 1.41 1.41 0 0 0 0 2.821z"/>
        <path fill-rule="nonzero" d="M22.559 14.1a7.058 7.058 0 0 0-7.05-7.05 7.058 7.058 0 0 0-7.05 7.05 7.058 7.058 0 0 0 7.05 7.049 7.058 7.058 0 0 0 7.05-7.05zm-7.05 4.229a4.234 4.234 0 0 1-4.23-4.23 4.234 4.234 0 0 1 4.23-4.23 4.234 4.234 0 0 1 4.23 4.23 4.234 4.234 0 0 1-4.23 4.23zM63.728 14.1a7.058 7.058 0 0 0-7.05-7.05 7.058 7.058 0 0 0-7.05 7.05 7.058 7.058 0 0 0 7.05 7.049 7.058 7.058 0 0 0 7.05-7.05zm-7.05 4.229a4.234 4.234 0 0 1-4.23-4.23 4.234 4.234 0 0 1 4.23-4.23 4.234 4.234 0 0 1 4.23 4.23 4.234 4.234 0 0 1-4.23 4.23z"/>
        <path fill-rule="nonzero" d="M56.678 0c-8.076 0-14.73 6.206-15.444 14.1h-10.28C30.238 6.205 23.584 0 15.508 0c-2.74 0-5.428.721-7.774 2.086a1.41 1.41 0 0 0 1.418 2.438 12.65 12.65 0 0 1 6.356-1.704c6.997 0 12.69 5.692 12.69 12.689 0 3.84-1.71 7.408-4.637 9.807-1.832-2.573-4.84-4.167-8.053-4.167-3.213 0-6.221 1.594-8.052 4.167a12.636 12.636 0 0 1-4.637-9.807c0-1.037.119-2.028.363-3.03a1.41 1.41 0 1 0-2.74-.668A15.399 15.399 0 0 0 0 15.509c0 8.656 7.023 15.51 15.509 15.51.783 0 1.564-.061 2.33-.177l5.964 9.893a15.478 15.478 0 0 0-3.218 9.458c0 8.688 7.057 15.509 15.509 15.509 8.465 0 15.509-6.835 15.509-15.51 0-3.436-1.136-6.756-3.219-9.457l5.964-9.893c.767.116 1.547.176 2.33.176 8.466 0 15.51-6.835 15.51-15.509C72.188 6.958 65.23 0 56.678 0zM30.954 16.919h10.28c.555 6.168 4.686 11.23 10.254 13.206l-5.105 8.467a15.51 15.51 0 0 0-10.29-3.908 15.51 15.51 0 0 0-10.289 3.908L20.7 30.125c5.566-1.974 9.698-7.034 10.254-13.206zM9.821 26.855a7.096 7.096 0 0 1 5.688-2.886c2.256 0 4.372 1.1 5.686 2.884a12.603 12.603 0 0 1-5.686 1.345c-1.99 0-3.932-.46-5.688-1.343zm20.585 34.684a7.096 7.096 0 0 1 5.688-2.887 7.096 7.096 0 0 1 5.687 2.887 12.654 12.654 0 0 1-5.687 1.343c-1.99 0-3.932-.46-5.688-1.343zm13.74-1.54c-1.831-2.573-4.84-4.166-8.052-4.166-3.213 0-6.221 1.593-8.053 4.166a12.636 12.636 0 0 1-4.636-9.806c0-7.035 5.717-12.69 12.689-12.69 6.952 0 12.689 5.636 12.689 12.69 0 3.84-1.71 7.408-4.637 9.806zm6.847-33.146a7.095 7.095 0 0 1 5.685-2.884 7.096 7.096 0 0 1 5.688 2.886 12.654 12.654 0 0 1-5.688 1.343c-1.965 0-3.9-.447-5.685-1.345zm13.738-1.537c-1.831-2.573-4.84-4.167-8.053-4.167-3.213 0-6.22 1.594-8.052 4.167a12.636 12.636 0 0 1-4.637-9.807c0-6.997 5.693-12.69 12.69-12.69 6.996 0 12.689 5.693 12.689 12.69 0 3.84-1.71 7.408-4.637 9.807z"/>
        <path fill-rule="nonzero" d="M43.143 48.783a7.058 7.058 0 0 0-7.05-7.05 7.058 7.058 0 0 0-7.049 7.05 7.058 7.058 0 0 0 7.05 7.05 7.058 7.058 0 0 0 7.05-7.05zm-7.05 4.23a4.234 4.234 0 0 1-4.229-4.23 4.234 4.234 0 0 1 4.23-4.23 4.234 4.234 0 0 1 4.23 4.23 4.234 4.234 0 0 1-4.23 4.23z"/>
    </g>
</svg>
