<svg xmlns="http://www.w3.org/2000/svg" width="55" height="66" viewBox="0 0 55 66">
    <g fill="#5A0C8C" fill-rule="evenodd">
        <path d="M2.175 22.21a1.286 1.286 0 0 0-.901-.37c-.335 0-.664.135-.9.37a1.274 1.274 0 0 0-.374.898 1.274 1.274 0 0 0 2.548 0c0-.334-.136-.661-.373-.897zM50.196.66H24.418c-.703 0-1.274.567-1.274 1.267s.571 1.269 1.274 1.269h25.778c.702 0 1.274.569 1.274 1.268V61.79c0 .699-.572 1.268-1.274 1.268H3.822a1.273 1.273 0 0 1-1.274-1.268V27.842c0-.7-.57-1.268-1.274-1.268-.704 0-1.274.568-1.274 1.268V61.79c0 2.098 1.715 3.804 3.822 3.804h46.374c2.107 0 3.822-1.706 3.822-3.804V4.464c0-2.098-1.715-3.805-3.822-3.805z"/>
        <path d="M27.009 5.732c-.867 0-1.738.066-2.59.196a1.27 1.27 0 0 0-1.066 1.446 1.274 1.274 0 0 0 1.453 1.061c.724-.11 1.465-.166 2.203-.166 7.938 0 14.396 6.429 14.396 14.331 0 3.51-1.274 6.728-3.385 9.222a12.705 12.705 0 0 0-3.76-4.049 12.71 12.71 0 0 0-2.891-1.492 6.182 6.182 0 0 0 1.883-4.441v-1.237c0-3.427-2.8-6.215-6.243-6.215-3.442 0-6.243 2.788-6.243 6.215v1.237c0 1.739.722 3.312 1.883 4.441a12.716 12.716 0 0 0-2.892 1.492 12.706 12.706 0 0 0-3.773 4.071 14.256 14.256 0 0 1-3.173-6.855 1.274 1.274 0 0 0-2.513.42 16.863 16.863 0 0 0 5.71 10.022 16.993 16.993 0 0 0 11 4.038c9.344 0 16.945-7.567 16.945-16.869 0-9.3-7.6-16.868-16.944-16.868zm-3.695 14.87c0-2.027 1.658-3.677 3.695-3.677s3.695 1.65 3.695 3.678v1.236c0 2.028-1.658 3.678-3.695 3.678s-3.695-1.65-3.695-3.678v-1.236zm3.695 16.33a14.42 14.42 0 0 1-9.134-3.232c1.71-3.456 5.208-5.646 9.134-5.646 3.918 0 7.408 2.18 9.123 5.625a14.37 14.37 0 0 1-9.123 3.253zM38.775 51.136h-18.09c-.704 0-1.275.568-1.275 1.269 0 .7.57 1.268 1.274 1.268h18.091c.704 0 1.274-.568 1.274-1.268 0-.7-.57-1.269-1.274-1.269zM16.143 44.406a1.286 1.286 0 0 0-.9-.372 1.275 1.275 0 0 0-1.274 1.268 1.273 1.273 0 0 0 2.547 0c0-.333-.135-.66-.373-.896zM16.143 51.508a1.284 1.284 0 0 0-.9-.372 1.275 1.275 0 0 0-1.274 1.268 1.273 1.273 0 0 0 2.547 0c0-.333-.135-.66-.373-.896zM38.775 44.034h-18.09c-.704 0-1.275.568-1.275 1.268 0 .7.57 1.269 1.274 1.269h18.091c.704 0 1.274-.568 1.274-1.269 0-.7-.57-1.268-1.274-1.268zM14.986 7.968a1.279 1.279 0 0 0-1.802 0l-4.15 4.13-1.417-1.411a1.279 1.279 0 0 0-1.802 0 1.264 1.264 0 0 0 0 1.794l2.319 2.308a1.274 1.274 0 0 0 1.802 0l5.05-5.027a1.264 1.264 0 0 0 0-1.794z"/>
        <path d="M10.447.66C4.687.66 0 5.324 0 11.058c0 5.734 4.686 10.4 10.447 10.4 5.76 0 10.447-4.666 10.447-10.4S16.207.659 10.447.659zm0 18.262c-4.356 0-7.899-3.527-7.899-7.863s3.543-7.863 7.899-7.863c4.355 0 7.899 3.527 7.899 7.863s-3.544 7.863-7.9 7.863z"/>
    </g>
</svg>
