<svg xmlns="http://www.w3.org/2000/svg" xmlns:xlink="http://www.w3.org/1999/xlink" width="70" height="55" viewBox="0 0 70 55">
    <defs>
        <path id="a" d="M0 54.678h70V0H0z"/>
    </defs>
    <g fill="none" fill-rule="evenodd">
        <path fill="#5A0C8B" d="M67.667 51.112c0 .657-.523 1.189-1.167 1.189h-63a1.178 1.178 0 0 1-1.167-1.189v-3.566H28v1.19c0 1.312 1.045 2.376 2.333 2.376h9.334c1.288 0 2.333-1.064 2.333-2.377v-1.189h25.667v3.566zm-37.334-2.377h9.334v-1.189h-9.334v1.19zm-24.5-36.848H31.5V9.509H5.833V5.943c0-1.969 1.567-3.566 3.5-3.566h51.334c1.933 0 3.5 1.597 3.5 3.566V9.51h-7v2.378h7v33.282H5.833V11.887zm63 33.282H66.5V5.943C66.496 2.663 63.887.004 60.667 0H9.333C6.113.004 3.503 2.662 3.5 5.943V45.17H1.167C.522 45.17 0 45.701 0 46.358v4.754c0 1.97 1.567 3.566 3.5 3.566h63c1.933 0 3.5-1.596 3.5-3.566v-4.754c0-.657-.522-1.189-1.167-1.189z"/>
        <mask id="b" fill="#fff">
            <use xlink:href="#a"/>
        </mask>
        <path fill="#5A0C8B" d="M10.5 7.132h2.333V4.755H10.5zM15.167 7.132H17.5V4.755h-2.333zM19.833 7.132h2.334V4.755h-2.334zM25.667 33.282c-2.578 0-4.667-2.128-4.667-4.754 0-2.626 2.09-4.755 4.667-4.755s4.666 2.13 4.666 4.755c0 2.626-2.09 4.754-4.666 4.754m0-11.886c-3.866 0-7 3.193-7 7.132 0 3.938 3.134 7.132 7 7.132 3.865 0 7-3.194 7-7.132-.004-3.938-3.136-7.128-7-7.132" mask="url(#b)"/>
        <path fill="#5A0C8B" d="M37.333 29.93l-1.806.37a1.174 1.174 0 0 0-.892.838c-.196.7-.47 1.374-.817 2.01-.212.388-.193.865.049 1.235l1.019 1.557-1.948 1.985-1.528-1.038a1.148 1.148 0 0 0-1.216-.049 9.165 9.165 0 0 1-1.969.832c-.42.122-.738.473-.824.91l-.356 1.835h-2.756l-.361-1.84a1.179 1.179 0 0 0-.823-.91 9.131 9.131 0 0 1-1.97-.832 1.149 1.149 0 0 0-1.215.049l-1.529 1.038-1.94-1.98 1.018-1.557c.242-.37.26-.847.049-1.236a9.529 9.529 0 0 1-.817-2.01 1.174 1.174 0 0 0-.893-.838L14 29.931v-2.806l1.806-.368c.428-.088.773-.411.893-.84.195-.699.469-1.373.816-2.009a1.207 1.207 0 0 0-.049-1.235l-1.018-1.557 1.947-1.985 1.528 1.038c.364.247.834.266 1.216.049a9.165 9.165 0 0 1 1.97-.832 1.18 1.18 0 0 0 .823-.91l.357-1.835h2.756l.36 1.84c.086.437.404.788.823.91.686.199 1.347.478 1.97.832.382.217.851.198 1.215-.049l1.529-1.039 1.947 1.985-1.018 1.557c-.242.37-.262.848-.049 1.237.347.635.62 1.309.816 2.008.12.428.465.752.893.84l1.802.363v2.806zm1.4-4.944l-2.07-.422c-.135-.393-.29-.779-.466-1.155l1.167-1.783c.308-.471.247-1.099-.146-1.5l-3.302-3.366a1.15 1.15 0 0 0-1.471-.148l-1.75 1.188c-.37-.179-.747-.337-1.132-.475l-.42-2.11A1.173 1.173 0 0 0 28 14.264h-4.667c-.554 0-1.032.397-1.143.95l-.415 2.11c-.385.138-.763.296-1.132.475l-1.75-1.188a1.15 1.15 0 0 0-1.471.148l-3.305 3.364a1.205 1.205 0 0 0-.146 1.5l1.167 1.783a11.64 11.64 0 0 0-.467 1.154l-2.071.426c-.543.113-.933.6-.933 1.165v4.754c0 .565.39 1.052.933 1.165l2.07.422c.135.393.29.778.466 1.154L13.97 35.43c-.309.472-.248 1.1.146 1.5l3.301 3.366a1.15 1.15 0 0 0 1.471.15l1.75-1.19c.37.18.747.338 1.132.476l.42 2.11c.111.553.589.95 1.143.95H28c.554 0 1.032-.397 1.143-.95l.416-2.11c.385-.137.762-.296 1.131-.474l1.75 1.188a1.15 1.15 0 0 0 1.471-.148l3.306-3.364c.393-.4.454-1.029.145-1.5l-1.166-1.783c.176-.376.331-.762.466-1.155l2.072-.425c.542-.113.933-.6.933-1.165v-4.754c0-.565-.39-1.052-.933-1.165zM44.333 16.641c1.898.001 3.606 1.173 4.32 2.964a4.819 4.819 0 0 1-1.063 5.194 4.602 4.602 0 0 1-5.123.956l-.934 2.179c3.544 1.574 7.67-.075 9.215-3.685 1.546-3.61-.073-7.814-3.616-9.389-3.543-1.576-7.669.074-9.215 3.683l2.137.95c.742-1.733 2.423-2.853 4.28-2.852" mask="url(#b)"/>
        <path fill="#5A0C8B" d="M57.4 17.854l-2.07-.422c-.135-.393-.29-.779-.467-1.155l1.167-1.783c.309-.47.248-1.099-.146-1.5l-3.301-3.366a1.15 1.15 0 0 0-1.471-.148l-1.75 1.188c-.37-.178-.747-.337-1.132-.475l-.42-2.11a1.173 1.173 0 0 0-1.143-.951H42c-.554 0-1.032.398-1.143.95l-.416 2.11c-.385.138-.762.296-1.132.475L37.56 9.48a1.15 1.15 0 0 0-1.47.148l-3.306 3.364 1.65 1.68L37.057 12l1.528 1.038c.364.247.834.266 1.216.049a9.165 9.165 0 0 1 1.97-.832 1.18 1.18 0 0 0 .823-.91l.361-1.835h2.756l.36 1.84c.086.437.404.788.824.91.686.199 1.347.478 1.97.832.382.217.851.198 1.215-.049l1.528-1.039 1.948 1.985-1.018 1.557c-.243.37-.262.848-.05 1.237.347.635.622 1.31.817 2.009.12.427.464.751.893.839l1.802.363v2.806l-1.806.368c-.428.087-.773.411-.892.839-.196.7-.47 1.374-.817 2.01-.212.388-.193.865.049 1.235l1.018 1.557-1.947 1.985-1.528-1.038a1.148 1.148 0 0 0-1.216-.049 9.166 9.166 0 0 1-1.97.832c-.42.122-.737.473-.823.91l-.357 1.835h-2.756l-.36-1.84-2.288.467.55 2.8c.11.552.589.95 1.143.95h4.667c.554 0 1.032-.398 1.143-.95l.415-2.11c.385-.138.763-.297 1.132-.475l1.75 1.188a1.15 1.15 0 0 0 1.471-.148l3.305-3.364c.394-.4.455-1.029.146-1.5l-1.167-1.783c.176-.376.332-.761.467-1.154l2.071-.426c.543-.113.933-.6.933-1.165V19.02c0-.565-.39-1.052-.933-1.165" mask="url(#b)"/>
    </g>
</svg>
